<?xml version="1.0" encoding="UTF-8"?>
<!--
    Licensed to the Apache Software Foundation (ASF) under one
    or more contributor license agreements.  See the NOTICE file
    distributed with this work for additional information
    regarding copyright ownership.  The ASF licenses this file
    to you under the Apache License, Version 2.0 (the
    "License"); you may not use this file except in compliance
    with the License.  You may obtain a copy of the License at

    http://www.apache.org/licenses/LICENSE-2.0

    Unless required by applicable law or agreed to in writing,
    software distributed under the License is distributed on an
    "AS IS" BASIS, WITHOUT WARRANTIES OR CONDITIONS OF ANY
    KIND, either express or implied.  See the License for the
    specific language governing permissions and limitations
    under the License.
-->
<svg xmlns="http://www.w3.org/2000/svg" xmlns:xlink="http://www.w3.org/1999/xlink" width="1000pt" height="1000pt" viewBox="0 0 1000 1000" version="1.1">
<g id="surface6">
<path style=" stroke:none;fill-rule:nonzero;fill:rgb(33.299255%,67.498779%,93.299866%);fill-opacity:1;" d="M 165.046875 499.71875 L 134.542969 521.578125 L 149.109375 536.457031 L 179.902344 512.429688 L 165.046875 499.71875 M 245.4375 442.101562 L 170.617188 495.722656 L 185.5 508.0625 L 259.976562 449.964844 L 245.4375 442.101562 M 204.601562 447.28125 L 117.152344 503.828125 L 129.988281 516.9375 L 217.984375 455.535156 L 204.601562 447.28125 M 227.5625 432.4375 L 208.652344 444.660156 L 222.023438 452.714844 L 240.816406 439.601562 L 227.5625 432.4375 M 216.375 491.851562 L 154.292969 541.746094 L 170.972656 558.769531 L 233.09375 503.828125 L 216.375 491.851562 M 265.0625 452.714844 L 221.066406 488.082031 L 237.742188 499.71875 L 281.085938 461.378906 L 265.0625 452.714844 M 161.773438 452.714844 L 101.726562 488.082031 L 113.128906 499.722656 L 173.863281 461.378906 L 161.773438 452.714844 M 286.699219 464.421875 L 176.929688 564.859375 L 196.199219 584.53125 L 304.445312 474.019531 L 286.699219 464.421875 M 211.214844 423.59375 L 166.441406 449.964844 L 178.558594 458.417969 L 223.34375 430.152344 L 211.214844 423.59375 M 196.199219 415.46875 L 207.34375 421.5 L 98.140625 484.417969 L 87.953125 474.019531 Z M 196.199219 415.46875 "/>
<path style=" stroke:none;fill-rule:nonzero;fill:rgb(33.299255%,67.498779%,93.299866%);fill-opacity:1;" d="M 379.960938 490.699219 C 392.640625 490.699219 399.742188 482.75 399.742188 471.761719 L 399.742188 471.59375 C 399.742188 459.25 392.640625 452.484375 379.621094 452.484375 L 366.265625 452.484375 L 366.265625 490.699219 Z M 341.746094 430.335938 L 381.144531 430.335938 C 407.6875 430.335938 424.429688 445.722656 424.429688 470.914062 L 424.429688 471.253906 C 424.429688 498.476562 404.984375 512.171875 380.128906 512.679688 L 366.265625 512.679688 L 366.265625 548.691406 L 341.746094 548.691406 Z M 341.746094 430.335938 "/>
<path style=" stroke:none;fill-rule:nonzero;fill:rgb(33.299255%,67.498779%,93.299866%);fill-opacity:1;" d="M 482.929688 518.933594 L 482.929688 511.328125 C 479.378906 509.636719 474.476562 508.453125 469.574219 508.453125 C 460.78125 508.453125 455.203125 512.847656 455.203125 521.132812 L 455.203125 521.46875 C 455.203125 528.910156 459.9375 532.628906 466.867188 532.800781 C 476.167969 532.96875 482.929688 527.21875 482.929688 518.933594 M 432.035156 522.824219 L 432.035156 521.808594 C 432.035156 501.859375 445.054688 492.898438 463.65625 492.898438 C 471.265625 492.898438 477.011719 494.417969 482.589844 496.617188 L 482.589844 493.910156 C 482.589844 483.425781 476.335938 478.015625 465.515625 478.015625 C 457.0625 478.015625 450.296875 480.722656 444.71875 483.089844 L 438.121094 464.320312 C 446.914062 459.925781 456.046875 457.050781 469.066406 457.050781 C 481.410156 457.050781 490.707031 460.433594 496.625 466.351562 C 502.882812 472.605469 505.925781 482.074219 505.925781 493.742188 L 505.925781 548.695312 L 482.421875 548.695312 L 482.421875 538.886719 C 477.011719 545.988281 469.574219 550.382812 458.921875 550.382812 C 444.039062 550.382812 432.035156 540.410156 432.035156 522.824219 "/>
<path style=" stroke:none;fill-rule:nonzero;fill:rgb(33.299255%,67.498779%,93.299866%);fill-opacity:1;" d="M 524.351562 458.066406 L 548.363281 458.066406 L 548.363281 474.128906 C 552.757812 463.136719 560.027344 455.867188 572.878906 456.542969 L 572.878906 482.582031 L 571.863281 482.582031 C 557.152344 482.582031 548.363281 491.710938 548.363281 510.648438 L 548.363281 548.695312 L 524.351562 548.695312 Z M 524.351562 458.066406 "/>
<path style=" stroke:none;fill-rule:nonzero;fill:rgb(33.299255%,67.498779%,93.299866%);fill-opacity:1;" d="M 640.847656 504.222656 L 640.847656 502.535156 C 640.847656 487.148438 633.070312 477.339844 623.09375 477.339844 C 613.117188 477.339844 605.507812 487.148438 605.507812 502.535156 L 605.507812 504.222656 C 605.507812 519.613281 613.117188 529.417969 623.09375 529.417969 C 633.070312 529.417969 640.847656 519.613281 640.847656 504.222656 M 640.507812 536.179688 C 635.269531 543.789062 627.996094 550.382812 615.992188 550.382812 C 598.070312 550.382812 581.5 535.671875 581.5 504.730469 L 581.5 502.027344 C 581.5 471.082031 597.902344 456.375 615.992188 456.375 C 628.164062 456.375 635.269531 462.96875 640.507812 469.730469 L 640.507812 458.066406 L 664.519531 458.066406 L 664.519531 574.222656 L 640.507812 574.222656 Z M 640.507812 536.179688 "/>
<path style=" stroke:none;fill-rule:nonzero;fill:rgb(33.299255%,67.498779%,93.299866%);fill-opacity:1;" d="M 683.285156 519.78125 L 683.285156 458.066406 L 707.125 458.066406 L 707.125 512.679688 C 707.125 523.332031 711.859375 528.742188 719.972656 528.742188 C 728.089844 528.742188 733.164062 523.332031 733.164062 512.679688 L 733.164062 458.066406 L 757.171875 458.066406 L 757.171875 548.691406 L 733.164062 548.691406 L 733.164062 536.519531 C 728.089844 543.789062 721.328125 550.382812 710 550.382812 C 692.921875 550.382812 683.285156 538.550781 683.285156 519.78125 "/>
<path style=" stroke:none;fill-rule:nonzero;fill:rgb(33.299255%,67.498779%,93.299866%);fill-opacity:1;" d="M 827.675781 496.449219 C 826.660156 483.933594 821.25 476.15625 812.289062 476.15625 C 803.496094 476.15625 797.75 483.597656 796.398438 496.449219 Z M 772.726562 504.394531 L 772.726562 502.871094 C 772.726562 475.988281 789.464844 456.375 812.289062 456.375 C 838.160156 456.375 850.839844 477.511719 850.839844 504.5625 C 850.839844 505.914062 850.839844 508.789062 850.671875 512.339844 L 796.566406 512.339844 C 798.59375 524.34375 806.035156 530.601562 816.179688 530.601562 C 823.617188 530.601562 829.367188 527.21875 835.117188 521.640625 L 847.457031 536.179688 C 839.171875 545.3125 828.691406 550.722656 815.164062 550.722656 C 791.15625 550.722656 772.726562 532.632812 772.726562 504.394531 "/>
<path style=" stroke:none;fill-rule:nonzero;fill:rgb(33.299255%,67.498779%,93.299866%);fill-opacity:1;" d="M 870.113281 526.035156 L 870.113281 478.355469 L 860.984375 478.355469 L 860.984375 458.066406 L 870.113281 458.066406 L 870.113281 434.898438 L 894.125 434.898438 L 894.125 458.066406 L 912.046875 458.066406 L 912.046875 478.355469 L 894.125 478.355469 L 894.125 521.132812 C 894.125 526.375 896.492188 528.910156 901.5625 528.910156 C 905.28125 528.910156 908.832031 527.894531 911.878906 526.375 L 911.878906 545.480469 C 907.140625 548.1875 901.394531 550.214844 894.125 550.214844 C 880.257812 550.214844 870.113281 544.804688 870.113281 526.035156 "/>
</g>
</svg>
