<?xml version="1.0" encoding="UTF-8"?>
<svg xmlns="http://www.w3.org/2000/svg" xmlns:xlink="http://www.w3.org/1999/xlink" width="1000pt" height="1000pt" viewBox="0 0 1000 1000" version="1.1">
<g id="surface11">
<path style=" stroke:none;fill-rule:nonzero;fill:rgb(33.299255%,67.498779%,93.299866%);fill-opacity:1;" d="M 410.308594 405.207031 L 322.476562 468.148438 L 364.417969 510.988281 L 453.078125 441.8125 L 410.308594 405.207031 M 641.769531 239.320312 L 426.347656 393.710938 L 469.195312 429.230469 L 683.628906 261.964844 L 641.769531 239.320312 M 524.183594 254.238281 L 272.402344 417.046875 L 309.363281 454.78125 L 562.71875 277.996094 L 524.183594 254.238281 M 590.300781 211.488281 L 535.859375 246.691406 L 574.347656 269.882812 L 628.453125 232.125 L 590.300781 211.488281 M 558.09375 382.554688 L 379.339844 526.21875 L 427.367188 575.226562 L 606.21875 417.046875 L 558.09375 382.554688 M 698.269531 269.882812 L 571.59375 371.703125 L 619.609375 405.207031 L 744.40625 294.828125 L 698.269531 269.882812 M 400.871094 269.882812 L 227.988281 371.703125 L 260.820312 405.226562 L 435.691406 294.828125 L 400.871094 269.882812 M 760.566406 303.582031 L 444.519531 592.761719 L 500 649.402344 L 811.664062 331.21875 L 760.566406 303.582031 M 543.230469 186.023438 L 414.316406 261.964844 L 449.207031 286.300781 L 578.152344 204.90625 L 543.230469 186.023438 M 500 162.640625 L 532.082031 180 L 217.667969 361.164062 L 188.335938 331.21875 Z M 500 162.640625 "/>
<path style=" stroke:none;fill-rule:nonzero;fill:rgb(33.299255%,67.498779%,93.299866%);fill-opacity:1;" d="M 253.0625 753.835938 C 265.746094 753.835938 272.84375 745.886719 272.84375 734.898438 L 272.84375 734.726562 C 272.84375 722.386719 265.746094 715.621094 252.722656 715.621094 L 239.367188 715.621094 L 239.367188 753.835938 Z M 214.851562 693.472656 L 254.246094 693.472656 C 280.792969 693.472656 297.53125 708.855469 297.53125 734.050781 L 297.53125 734.390625 C 297.53125 761.609375 278.085938 775.308594 253.234375 775.8125 L 239.367188 775.8125 L 239.367188 811.828125 L 214.851562 811.828125 Z M 214.851562 693.472656 "/>
<path style=" stroke:none;fill-rule:nonzero;fill:rgb(33.299255%,67.498779%,93.299866%);fill-opacity:1;" d="M 356.035156 782.070312 L 356.035156 774.460938 C 352.484375 772.769531 347.582031 771.589844 342.675781 771.589844 C 333.882812 771.589844 328.304688 775.980469 328.304688 784.265625 L 328.304688 784.605469 C 328.304688 792.046875 333.039062 795.765625 339.972656 795.933594 C 349.269531 796.101562 356.035156 790.355469 356.035156 782.070312 M 305.140625 785.960938 L 305.140625 784.945312 C 305.140625 764.992188 318.160156 756.03125 336.757812 756.03125 C 344.367188 756.03125 350.117188 757.550781 355.695312 759.753906 L 355.695312 757.046875 C 355.695312 746.5625 349.4375 741.152344 338.617188 741.152344 C 330.164062 741.152344 323.402344 743.855469 317.820312 746.222656 L 311.226562 727.457031 C 320.019531 723.058594 329.148438 720.183594 342.167969 720.183594 C 354.511719 720.183594 363.8125 723.566406 369.730469 729.484375 C 375.984375 735.742188 379.027344 745.210938 379.027344 756.878906 L 379.027344 811.828125 L 355.527344 811.828125 L 355.527344 802.019531 C 350.117188 809.125 342.675781 813.519531 332.023438 813.519531 C 317.144531 813.519531 305.140625 803.542969 305.140625 785.960938 "/>
<path style=" stroke:none;fill-rule:nonzero;fill:rgb(33.299255%,67.498779%,93.299866%);fill-opacity:1;" d="M 397.457031 721.203125 L 421.464844 721.203125 L 421.464844 737.261719 C 425.859375 726.273438 433.132812 719.003906 445.980469 719.679688 L 445.980469 745.71875 L 444.96875 745.71875 C 430.257812 745.71875 421.464844 754.847656 421.464844 773.785156 L 421.464844 811.828125 L 397.457031 811.828125 Z M 397.457031 721.203125 "/>
<path style=" stroke:none;fill-rule:nonzero;fill:rgb(33.299255%,67.498779%,93.299866%);fill-opacity:1;" d="M 513.953125 767.359375 L 513.953125 765.671875 C 513.953125 750.285156 506.171875 740.476562 496.195312 740.476562 C 486.222656 740.476562 478.613281 750.285156 478.613281 765.671875 L 478.613281 767.359375 C 478.613281 782.746094 486.222656 792.550781 496.195312 792.550781 C 506.171875 792.550781 513.953125 782.746094 513.953125 767.359375 M 513.613281 799.316406 C 508.371094 806.925781 501.101562 813.519531 489.097656 813.519531 C 471.171875 813.519531 454.601562 798.808594 454.601562 767.867188 L 454.601562 765.164062 C 454.601562 734.21875 471.003906 719.507812 489.097656 719.507812 C 501.269531 719.507812 508.371094 726.101562 513.613281 732.867188 L 513.613281 721.203125 L 537.621094 721.203125 L 537.621094 837.359375 L 513.613281 837.359375 Z M 513.613281 799.316406 "/>
<path style=" stroke:none;fill-rule:nonzero;fill:rgb(33.299255%,67.498779%,93.299866%);fill-opacity:1;" d="M 556.386719 782.914062 L 556.386719 721.199219 L 580.226562 721.199219 L 580.226562 775.8125 C 580.226562 786.46875 584.960938 791.878906 593.078125 791.878906 C 601.195312 791.878906 606.265625 786.46875 606.265625 775.8125 L 606.265625 721.199219 L 630.277344 721.199219 L 630.277344 811.828125 L 606.265625 811.828125 L 606.265625 799.652344 C 601.195312 806.925781 594.429688 813.519531 583.101562 813.519531 C 566.027344 813.519531 556.386719 801.683594 556.386719 782.914062 "/>
<path style=" stroke:none;fill-rule:nonzero;fill:rgb(33.299255%,67.498779%,93.299866%);fill-opacity:1;" d="M 700.78125 759.582031 C 699.765625 747.070312 694.355469 739.292969 685.394531 739.292969 C 676.601562 739.292969 670.851562 746.730469 669.5 759.582031 Z M 645.828125 767.527344 L 645.828125 766.007812 C 645.828125 739.121094 662.566406 719.511719 685.394531 719.511719 C 711.261719 719.511719 723.945312 740.644531 723.945312 767.695312 C 723.945312 769.050781 723.945312 771.925781 723.773438 775.476562 L 669.667969 775.476562 C 671.699219 787.480469 679.136719 793.734375 689.28125 793.734375 C 696.722656 793.734375 702.46875 790.355469 708.21875 784.773438 L 720.5625 799.316406 C 712.277344 808.445312 701.792969 813.855469 688.265625 813.855469 C 664.257812 813.855469 645.828125 795.765625 645.828125 767.527344 "/>
<path style=" stroke:none;fill-rule:nonzero;fill:rgb(33.299255%,67.498779%,93.299866%);fill-opacity:1;" d="M 743.21875 789.171875 L 743.21875 741.488281 L 734.085938 741.488281 L 734.085938 721.199219 L 743.21875 721.199219 L 743.21875 698.035156 L 767.226562 698.035156 L 767.226562 721.199219 L 785.148438 721.199219 L 785.148438 741.488281 L 767.226562 741.488281 L 767.226562 784.269531 C 767.226562 789.511719 769.59375 792.046875 774.664062 792.046875 C 778.386719 792.046875 781.9375 791.03125 784.980469 789.511719 L 784.980469 808.613281 C 780.246094 811.320312 774.496094 813.351562 767.226562 813.351562 C 753.363281 813.351562 743.21875 807.941406 743.21875 789.171875 "/>
</g>
</svg>
